# xmcd
#
# Track frame offsets:
#	150
#	17510
#	30400
#	44345
#	58592
#	81362
#	99882
#	119007
#	136145
#	147415
#	164807
#	180967
#	198222
#	208375
#
# Disc length: 3012 seconds
#
# Revision: 1
# Processed by: cddbd v1.5.1PL2 Copyright (c) Steve Scherf et al.
# Submitted via: audiograbber 1.83.01
#
DISCID=c10bc20e
DTITLE=Various Artist - Fried Glass Onions - Memphis Meets The Beatles [CD 1)
DYEAR=2005
DGENRE=Blues
TTITLE0=Bob Simon and Eddie Harrison - Two Of Us
TTITLE1=Daddy Mack Orr - Get Back
TTITLE2=Z-Da - Day Tripper
TTITLE3=Charlie Wood - Happiness Is A Warm Gun
TTITLE4=Jackie Johnson - Blackbird
TTITLE5=Bertram Brown - You're Gonna Lose That Girl
TTITLE6=Matt Tutor - She Came In Through The Bathroom Window
TTITLE7=Memphis All-Stars - Drive My Car
TTITLE8=The Beat Generation - Yer Blues
TTITLE9=John Kilzer - Across The Universe
TTITLE10=Gusto (Featuring Dexter Haygood) - The One After 909
TTITLE11=Dani - Old Brown Shoe
TTITLE12=Lamar Sorrento and The Mod Saints - A Hard Day's Night
TTITLE13=Kevin Paige - A Long And Winding Road
EXTD=
EXTT0=
EXTT1=
EXTT2=
EXTT3=
EXTT4=
EXTT5=
EXTT6=
EXTT7=
EXTT8=
EXTT9=
EXTT10=
EXTT11=
EXTT12=
EXTT13=
PLAYORDER=
